#!OML:ASF H:\Male1\Project 1\Capture day 1\Session 1\Male1.ASF
:FULLY-SPECIFIED
:DEGREES
960
root 16.0517 15.3801 2.93189 175.807 61.1564 180.662
lowerback 1.22672 0.204149 0.61832
upperback 2.89056 0.371403 -1.88108
thorax 2.29382 0.250962 -2.27426
lowerneck -8.93604 5.63096 9.86219
upperneck 6.59054 6.997 -7.63434
head 4.04091 3.34851 -3.48086
rclavicle -3.33958e-014 6.36111e-015
rhumerus 29.9174 44.0088 -55.7273
rradius 76.9304
rwrist -50.9701
rhand -3.41058 -6.8788
rfingers 7.12502
rthumb 22.3199 -35.6096
lclavicle -3.33958e-014 6.36111e-015
lhumerus 44.8202 -37.3675 21.9971
lradius 98.9202
lwrist 13.3877
lhand -34.7661 -4.31424
lfingers 7.12502
lthumb -7.91905 25.5174
rfemur -0.830898 19.1388 20.7105
rtibia 22.5501
rfoot -21.7325 -24.1996
rtoes -29.2307
lfemur 3.91231 -22.6138 -19.0128
ltibia 20.2482
lfoot -20.3651 25.4315
ltoes -17.9691
961
root 16.0489 15.3805 2.93149 176.587 61.4619 181.528
lowerback 1.2386 0.205906 1.23127
upperback 2.9096 0.370305 -1.86482
thorax 2.31135 0.263279 -2.60247
lowerneck -8.88702 5.64096 9.929
upperneck 6.42841 6.98491 -7.50466
head 3.97997 3.35021 -3.45458
rclavicle -2.20651e-014 7.15625e-015
rhumerus 28.5355 43.5768 -57.1107
rradius 76.3922
rwrist -50.7634
rhand -6.04967 -8.42255
rfingers 7.12502
rthumb 19.7846 -37.4356
lclavicle -2.20651e-014 7.15625e-015
lhumerus 42.1097 -34.5146 24.0074
lradius 97.6149
lwrist 13.1755
lhand -35.0126 -4.5727
lfingers 7.12502
lthumb -8.1569 25.2499
rfemur -0.886648 19.4645 21.2055
rtibia 22.5146
rfoot -21.4894 -24.4219
rtoes -29.7377
lfemur 3.93768 -22.4684 -18.5465
ltibia 20.249
lfoot -20.2047 25.5999
ltoes -18.6046
962
root 16.0426 15.3834 2.93273 177.621 61.8306 182.567
lowerback 1.30245 0.218627 1.89261
upperback 2.8267 0.379747 -1.80984
thorax 2.1958 0.277251 -2.91859
lowerneck -9.06926 5.5162 9.90164
upperneck 6.54938 6.78886 -7.30928
head 4.02137 3.25835 -3.39984
rclavicle 1.5704e-014 0
rhumerus 27.0857 43.0457 -58.595
rradius 75.7937
rwrist -50.7463
rhand -7.38865 -9.75867
rfingers 7.12502
rthumb 18.497 -38.8992
lclavicle 1.5704e-014 0
lhumerus 39.5339 -31.4259 26.013
lradius 96.7371
lwrist 13.7012
lhand -34.9245 -3.79751
lfingers 7.12502
lthumb -8.07194 26.0283
rfemur -1.1012 19.8163 21.7261
rtibia 22.5103
rfoot -21.4075 -24.4714
rtoes -29.7094
lfemur 3.87309 -22.3148 -17.9547
ltibia 20.1928
lfoot -20.3613 25.6796
ltoes -18.208
963
root 16.038 15.3866 2.93206 177.334 62.1134 182.134
lowerback 1.2911 0.229697 1.83037
upperback 2.8124 0.399409 -1.97834
thorax 2.18978 0.28849 -3.05734
lowerneck -9.10192 5.40143 10.0445
upperneck 6.48749 6.60134 -7.23063
head 3.99358 3.17184 -3.41249
rclavicle -3.46879e-014 1.11319e-014
rhumerus 25.8258 42.431 -59.8083
rradius 75.3183
rwrist -50.9606
rhand -8.49121 -10.7033
rfingers 7.12502
rthumb 17.4362 -39.9413
lclavicle -3.46879e-014 1.11319e-014
lhumerus 37.4367 -28.0345 27.7785
lradius 96.2086
lwrist 14.3099
lhand -34.7524 -1.28334
lfingers 7.12502
lthumb -7.90582 28.5488
rfemur -1.28163 20.0127 21.4387
rtibia 22.5166
rfoot -21.4245 -24.2903
rtoes -29.3324
lfemur 3.86177 -22.2793 -18.1953
ltibia 20.1236
lfoot -20.7221 25.8063
ltoes -17.2809
964
root 16.0372 15.3868 2.92758 176.378 62.3615 181.066
lowerback 2.52286 0.278802 0.517142
upperback 2.07042 0.430885 -1.53628
thorax 0.722843 0.250822 -1.87193
lowerneck -8.84582 5.20565 9.84468
upperneck 7.0943 6.44886 -7.50932
head 4.12591 3.08838 -3.48092
rclavicle 6.97921e-014 -1.27222e-014
rhumerus 23.586 42.853 -60.4361
rradius 75.1733
rwrist -50.9989
rhand -9.90934 -11.1346
rfingers 7.12502
rthumb 16.0709 -40.4882
lclavicle 6.97921e-014 -1.27222e-014
lhumerus 34.5659 -25.1862 31.0065
lradius 96.0197
lwrist 14.7216
lhand -36.6806 -1.09882
lfingers 7.12502
lthumb -9.76646 28.6547
rfemur -1.34725 19.9921 20.826
rtibia 22.5586
rfoot -21.3502 -23.971
rtoes -29.4329
lfemur 4.03603 -22.2859 -18.845
ltibia 20.0043
lfoot -20.473 26.187
ltoes -17.9564
965
root 16.0367 15.3865 2.92132 176.23 62.681 180.875
lowerback 2.72148 0.29808 0.412507
upperback 1.98255 0.452179 -1.54762
thorax 0.521663 0.258438 -1.82692
lowerneck -8.93229 5.06546 9.5948
upperneck 7.23913 6.25636 -7.1715
head 4.14823 3.00192 -3.34813
rclavicle -5.13796e-014 7.95139e-015
rhumerus 22.149 42.5426 -61.3431
rradius 75.0083
rwrist -50.654
rhand -11.3009 -11.3061
rfingers 7.12502
rthumb 14.7306 -40.7627
lclavicle -5.13796e-014 7.95139e-015
lhumerus 32.8869 -21.3341 33.0114
lradius 96.291
lwrist 15.3584
lhand -36.6735 1.29526
lfingers 7.12502
lthumb -9.75967 31.0491
rfemur -1.45795 20.0146 20.6639
rtibia 22.6321
rfoot -21.2563 -23.6975
rtoes -29.6383
lfemur 4.22765 -22.2461 -19.0296
ltibia 19.8284
lfoot -20.5511 26.4294
ltoes -17.676
966
root 16.0348 15.388 2.91429 176.725 62.9825 181.306
lowerback 2.83421 0.284871 0.557743
upperback 1.9082 0.432491 -1.4005
thorax 0.381566 0.246216 -1.7581
lowerneck -9.12999 4.88766 9.01701
upperneck 7.3665 6.04062 -6.7826
head 4.17122 2.89572 -3.14669
rclavicle -5.46844e-014 2.34566e-014
rhumerus 20.744 42.2166 -62.067
rradius 74.9948
rwrist -50.3179
rhand -12.3654 -11.3298
rfingers 7.12502
rthumb 13.7049 -40.8585
lclavicle -5.46844e-014 2.34566e-014
lhumerus 31.4884 -17.1776 35.0321
lradius 96.9524
lwrist 16.0565
lhand -36.5863 3.89139
lfingers 7.12502
lthumb -9.67555 33.6492
rfemur -1.58187 20.1545 20.8097
rtibia 22.5848
rfoot -21.1816 -23.5441
rtoes -29.521
lfemur 4.23359 -22.2455 -18.8625
ltibia 19.7794
lfoot -21.2289 26.5203
ltoes -16.1805
967
root 16.0326 15.3904 2.90811 177.167 63.2274 181.645
lowerback 2.88151 0.254118 0.649926
upperback 1.87841 0.390648 -1.25978
thorax 0.322676 0.223685 -1.66485
lowerneck -9.21929 4.69819 8.60532
upperneck 7.37325 5.81668 -6.62501
head 4.15308 2.7804 -3.04709
rclavicle 2.16178e-014 3.57812e-015
rhumerus 19.4717 41.8545 -62.6359
rradius 75.0835
rwrist -50.1192
rhand -13.2219 -11.1792
rfingers 7.12502
rthumb 12.8793 -40.7618
lclavicle 2.16178e-014 3.57812e-015
lhumerus 30.5798 -12.8663 37.0968
lradius 97.7431
lwrist 16.4742
lhand -37.5689 6.30363
lfingers 7.12502
lthumb -10.6235 36.0151
rfemur -1.64185 20.2479 20.8914
rtibia 22.353
rfoot -20.9351 -23.4208
rtoes -29.6927
lfemur 4.07843 -22.2763 -18.724
ltibia 19.9376
lfoot -21.4501 26.7947
ltoes -16.1738
968
root 16.032 15.3933 2.90398 177.825 63.4658 182.222
lowerback 2.89453 0.238737 0.822361
upperback 1.85986 0.372008 -1.15445
thorax 0.296162 0.214129 -1.65328
lowerneck -9.21228 4.51927 8.53615
upperneck 7.37571 5.59187 -6.6835
head 4.13504 2.66517 -3.07115
rclavicle -1.11754e-014 1.07344e-014
rhumerus 18.2008 41.3559 -63.213
rradius 75.2751
rwrist -50.0665
rhand -13.711 -11.1704
rfingers 7.12502
rthumb 12.4078 -40.7822
lclavicle -1.11754e-014 1.07344e-014
lhumerus 30.223 -8.59249 39.1353
lradius 98.8613
lwrist 16.8188
lhand -39.0463 9.08882
lfingers 7.12502
lthumb -12.0483 38.722
rfemur -1.68331 20.3524 21.0988
rtibia 22.0576
rfoot -20.5449 -23.4005
rtoes -30.2897
lfemur 3.88698 -22.2758 -18.4439
ltibia 20.155
lfoot -21.1546 27.1459
ltoes -17.4376
969
root 16.0339 15.3956 2.90062 178.669 63.7017 183.038
lowerback 2.90359 0.255763 1.06238
upperback 1.84398 0.39856 -1.06045
thorax 0.276795 0.227947 -1.69241
lowerneck -9.19846 4.30742 8.45335
upperneck 7.43822 5.3204 -6.66961
head 4.12817 2.53048 -3.07366
rclavicle -7.25564e-015 1.74931e-014
rhumerus 16.7351 40.7146 -63.903
rradius 75.5512
rwrist -49.8842
rhand -13.8901 -11.3324
rfingers 7.12502
rthumb 12.235 -40.9546
lclavicle -7.25564e-015 1.74931e-014
lhumerus 30.3003 -4.42686 41.0183
lradius 100.468
lwrist 17.3606
lhand -40.4556 12.0327
lfingers 7.12502
lthumb -13.4069 41.5813
rfemur -1.70969 20.4643 21.4507
rtibia 21.794
rfoot -20.1663 -23.4773
rtoes -31.0554
lfemur 3.74842 -22.2809 -18.0486
ltibia 20.3336
lfoot -21.4731 27.2214
ltoes -17.0568
970
root 16.037 15.3969 2.89701 179.111 63.8694 183.462
lowerback 2.87978 0.348646 1.16799
upperback 1.8946 0.525547 -1.02693
thorax 0.347437 0.293412 -1.7201
lowerneck -9.32281 4.02048 8.05043
upperneck 7.62599 4.94936 -6.31159
head 4.15798 2.3528 -2.92213
rclavicle 6.63941e-014 -4.37326e-015
rhumerus 15.1043 39.8145 -64.5402
rradius 75.8997
rwrist -49.5
rhand -13.9171 -11.2899
rfingers 7.12502
rthumb 12.209 -40.9136
lclavicle 6.63941e-014 -4.37326e-015
lhumerus 30.9025 -0.511823 42.8207
lradius 102.357
lwrist 17.6819
lhand -41.9685 14.7913
lfingers 7.12502
lthumb -14.8648 44.238
rfemur -1.68517 20.5606 21.6333
rtibia 21.5691
rfoot -19.9433 -23.5491
rtoes -31.5077
lfemur 3.67197 -22.3181 -17.8658
ltibia 20.4799
lfoot -22.3535 27.0704
ltoes -14.957
